<svg id="svg" version="1.1" width="400" height="255.39906103286384" viewBox="0 0 400 255.39906103286384" xmlns="http://www.w3.org/2000/svg" xmlns:xlink="http://www.w3.org/1999/xlink"><g id="svgg"><path id="path0" d="M38.429 95.849 C 40.853 101.693,41.723 103.773,43.481 107.918 C 45.810 113.410,48.475 119.653,50.897 125.287 C 51.803 127.395,53.474 131.303,54.609 133.972 C 55.744 136.641,57.187 140.032,57.814 141.507 C 64.253 156.647,64.346 156.811,67.677 158.924 C 70.067 160.440,74.671 161.191,79.149 160.795 L 81.170 160.616 81.622 159.554 C 81.871 158.971,82.443 157.631,82.894 156.577 C 83.345 155.524,84.371 153.110,85.174 151.213 C 85.977 149.317,87.155 146.558,87.793 145.083 C 88.431 143.608,89.347 141.481,89.828 140.358 C 90.310 139.234,90.982 137.682,91.322 136.909 C 92.426 134.400,95.285 127.673,96.805 124.010 C 97.621 122.043,98.713 119.457,99.232 118.263 C 102.741 110.182,102.683 110.771,99.856 111.899 C 94.397 114.078,88.998 118.522,85.240 123.931 C 82.480 127.902,81.979 128.939,76.065 142.912 C 75.352 144.598,74.561 146.466,74.308 147.063 C 74.055 147.660,73.776 148.148,73.689 148.148 C 73.522 148.148,71.812 144.553,71.028 142.554 C 70.552 141.342,67.255 133.478,61.162 119.029 C 59.237 114.464,56.871 108.803,55.904 106.450 C 52.160 97.342,49.142 95.036,40.945 95.024 L 38.085 95.019 38.429 95.849 M103.831 95.394 C 97.100 96.862,94.045 100.006,90.044 109.579 C 89.251 111.475,88.265 113.804,87.852 114.753 C 87.439 115.703,87.101 116.547,87.101 116.630 C 87.101 116.713,87.992 115.948,89.080 114.931 C 93.647 110.663,98.782 107.942,104.217 106.911 C 107.241 106.338,123.329 106.333,125.553 106.905 C 134.744 109.269,135.639 122.619,126.881 126.718 L 125.032 127.583 116.731 127.732 C 106.292 127.919,104.923 128.320,100.795 132.409 C 98.231 134.949,97.590 136.253,90.159 154.023 C 89.424 155.779,88.501 157.963,88.106 158.876 L 87.388 160.536 88.075 160.726 C 89.955 161.245,95.071 160.332,97.318 159.076 C 101.296 156.854,102.579 154.973,106.474 145.649 C 108.285 141.316,108.507 140.950,109.885 140.038 L 110.945 139.336 119.010 139.190 C 128.090 139.025,129.057 138.852,133.333 136.626 C 146.405 129.824,148.815 110.896,137.897 100.787 C 134.810 97.929,131.207 96.109,127.203 95.384 C 124.545 94.903,106.048 94.911,103.831 95.394 " stroke="none" fill="#164c7b" fill-rule="evenodd"></path><path id="path1" d="M0.000 127.714 L 0.000 255.428 200.000 255.428 L 400.000 255.428 400.000 127.714 L 400.000 0.000 200.000 0.000 L 0.000 0.000 0.000 127.714 M46.047 95.143 C 48.336 95.739,50.055 96.739,51.740 98.456 C 53.743 100.497,54.364 101.588,56.182 106.258 C 56.482 107.031,57.291 108.985,57.978 110.600 C 58.665 112.216,59.928 115.204,60.785 117.241 C 61.642 119.278,62.564 121.462,62.833 122.095 C 63.102 122.727,63.686 124.106,64.130 125.160 C 64.575 126.213,65.145 127.535,65.397 128.097 C 65.848 129.103,66.340 130.312,67.425 133.078 C 67.728 133.851,68.185 134.943,68.441 135.504 C 68.697 136.066,69.332 137.561,69.852 138.825 C 70.373 140.089,70.965 141.495,71.169 141.949 C 71.372 142.402,71.697 143.207,71.890 143.737 C 72.818 146.275,73.736 147.791,73.941 147.121 C 74.048 146.773,74.403 145.913,74.729 145.211 C 75.335 143.908,75.808 142.794,78.141 137.165 C 81.817 128.300,83.488 125.282,87.154 120.885 C 90.671 116.667,95.897 112.932,100.709 111.196 C 103.134 110.321,103.109 110.069,101.069 114.815 C 100.587 115.939,99.419 118.697,98.475 120.945 C 97.530 123.193,96.075 126.641,95.240 128.608 C 94.406 130.575,93.504 132.701,93.236 133.333 C 91.776 136.786,90.851 138.936,90.435 139.847 C 90.178 140.409,89.650 141.616,89.262 142.529 C 88.873 143.442,88.178 145.051,87.718 146.105 C 87.257 147.158,86.481 148.997,85.994 150.192 C 85.506 151.386,84.349 154.115,83.422 156.257 C 82.495 158.399,81.737 160.263,81.737 160.399 C 81.737 161.811,71.749 161.345,68.582 159.785 C 65.638 158.334,61.572 153.281,61.557 151.052 C 61.556 150.930,61.395 150.523,61.199 150.148 C 60.859 149.495,59.152 145.526,55.890 137.803 C 53.946 133.200,53.205 131.476,52.458 129.814 C 52.125 129.072,51.852 128.402,51.852 128.324 C 51.852 128.168,50.483 124.965,49.902 123.761 C 49.700 123.344,49.122 122.022,48.617 120.824 C 48.113 119.626,47.306 117.727,46.824 116.603 C 46.342 115.479,45.730 114.042,45.465 113.410 C 45.200 112.778,44.358 110.824,43.595 109.068 C 42.832 107.312,41.785 104.840,41.268 103.576 C 40.263 101.119,39.820 100.060,38.563 97.104 C 37.413 94.402,37.418 94.397,41.324 94.595 C 43.113 94.685,45.238 94.932,46.047 95.143 M125.428 94.777 C 143.892 96.672,151.854 119.591,138.696 132.969 C 136.027 135.682,132.720 137.735,129.695 138.557 C 128.957 138.757,127.950 139.058,127.458 139.226 C 126.879 139.423,123.958 139.565,119.157 139.629 C 108.877 139.768,109.482 139.463,106.750 145.875 C 104.063 152.183,103.422 153.556,102.710 154.534 C 99.398 159.084,96.214 160.767,90.421 161.028 C 87.409 161.163,86.523 160.991,87.019 160.364 C 87.167 160.178,87.721 158.991,88.251 157.727 C 88.780 156.462,89.543 154.661,89.945 153.725 C 90.348 152.788,90.677 151.958,90.677 151.880 C 90.677 151.803,90.950 151.132,91.283 150.391 C 91.616 149.649,92.209 148.295,92.599 147.382 C 92.990 146.469,93.684 144.860,94.142 143.806 C 94.600 142.752,95.281 141.143,95.655 140.230 C 97.519 135.684,99.313 132.994,101.759 131.075 C 106.035 127.722,107.254 127.425,117.497 127.229 C 126.857 127.050,126.897 127.041,129.631 124.281 C 133.768 120.104,133.666 113.243,129.409 109.416 C 126.671 106.954,125.699 106.775,115.070 106.772 C 101.250 106.768,96.437 108.364,89.137 115.370 C 85.947 118.432,85.926 118.057,88.912 111.433 C 89.180 110.838,89.400 110.270,89.400 110.173 C 89.400 110.075,89.618 109.528,89.885 108.957 C 90.152 108.386,90.850 106.837,91.436 105.514 C 94.170 99.348,99.249 95.429,105.364 94.770 C 108.135 94.472,122.498 94.477,125.428 94.777 M162.698 138.889 C 163.263 140.101,166.156 146.826,167.944 151.086 C 168.888 153.333,169.757 155.275,169.874 155.401 C 170.092 155.635,170.178 155.471,171.732 151.852 C 173.578 147.553,176.208 141.608,177.186 139.527 L 177.815 138.186 179.457 138.186 C 180.360 138.186,181.098 138.280,181.098 138.393 C 181.098 138.683,180.041 141.293,179.061 143.423 C 178.609 144.406,177.723 146.418,177.094 147.893 C 176.465 149.368,175.686 151.149,175.363 151.852 C 175.040 152.554,174.114 154.623,173.304 156.450 C 171.460 160.608,171.636 160.409,169.812 160.409 L 168.294 160.409 167.397 158.429 C 166.055 155.466,166.081 155.525,162.348 146.806 C 160.439 142.345,158.876 138.581,158.876 138.441 C 158.876 137.754,162.359 138.162,162.698 138.889 M186.845 149.298 L 186.845 160.281 185.185 160.281 L 183.525 160.281 183.458 149.553 C 183.380 137.033,183.205 138.141,185.246 138.238 L 186.845 138.314 186.845 149.298 M196.608 139.655 C 197.976 141.254,205.376 150.524,207.024 152.703 L 208.046 154.054 208.174 146.184 L 208.301 138.314 209.962 138.314 L 211.622 138.314 211.689 149.013 C 211.763 160.931,211.842 160.409,209.973 160.409 L 208.770 160.409 205.215 155.904 C 203.260 153.427,200.798 150.343,199.745 149.051 C 198.691 147.759,197.461 146.251,197.012 145.701 L 196.195 144.700 196.149 147.637 C 196.123 149.253,196.031 152.759,195.944 155.428 L 195.785 160.281 194.253 160.281 L 192.720 160.281 192.654 149.553 C 192.577 137.231,192.456 138.186,194.092 138.186 C 195.310 138.186,195.394 138.236,196.608 139.655 M222.462 141.060 C 226.653 146.281,231.278 152.102,232.056 153.134 L 232.822 154.151 232.950 146.232 L 233.078 138.314 234.658 138.239 L 236.238 138.163 236.318 141.048 C 236.362 142.635,236.341 147.612,236.271 152.107 L 236.143 160.281 234.839 160.357 C 233.343 160.444,233.561 160.637,230.013 156.080 C 228.889 154.636,226.360 151.446,224.393 148.991 L 220.817 144.526 220.690 152.404 L 220.562 160.281 219.200 160.359 C 217.007 160.484,217.135 161.222,217.276 149.346 C 217.422 137.100,217.265 138.186,218.882 138.186 L 220.156 138.186 222.462 141.060 M243.337 139.655 C 244.692 141.768,245.028 142.311,247.090 145.722 C 248.110 147.407,249.092 148.787,249.274 148.787 C 249.456 148.787,251.040 146.402,252.796 143.487 L 255.988 138.186 257.608 138.186 C 258.500 138.186,259.282 138.273,259.346 138.378 C 259.441 138.533,256.966 142.770,254.458 146.743 C 254.192 147.165,253.594 148.142,253.130 148.914 C 252.665 149.687,251.986 150.769,251.621 151.318 C 250.996 152.259,250.950 152.546,250.830 156.299 L 250.702 160.281 249.106 160.357 L 247.510 160.433 247.510 156.569 L 247.510 152.704 246.655 151.256 C 246.185 150.460,245.000 148.544,244.021 146.999 C 243.042 145.453,241.796 143.384,241.253 142.401 C 240.709 141.418,239.998 140.213,239.672 139.724 C 238.752 138.341,238.859 138.186,240.738 138.186 L 242.396 138.186 243.337 139.655 M282.343 138.688 C 286.833 139.972,288.833 143.779,287.456 148.421 C 286.420 151.912,283.671 153.295,277.440 153.457 L 273.270 153.565 273.311 156.285 C 273.380 160.906,273.561 160.445,271.711 160.357 L 270.115 160.281 270.048 149.553 C 270.012 143.653,270.037 138.681,270.104 138.506 C 270.327 137.924,280.186 138.071,282.343 138.688 M295.275 142.784 L 295.402 147.254 301.277 147.254 L 307.152 147.254 307.280 142.784 L 307.407 138.314 309.068 138.314 L 310.728 138.314 310.728 149.298 L 310.728 160.281 309.068 160.281 L 307.407 160.281 307.338 155.364 L 307.269 150.447 301.277 150.447 L 295.286 150.447 295.216 155.364 L 295.147 160.281 293.638 160.359 C 291.591 160.464,291.707 161.136,291.703 149.149 C 291.698 137.231,291.540 138.140,293.604 138.240 L 295.147 138.314 295.275 142.784 M327.458 140.106 C 328.384 141.961,329.553 144.486,331.417 148.659 C 332.013 149.994,333.105 152.350,333.843 153.895 C 337.136 160.791,337.099 160.477,334.607 160.358 L 332.995 160.281 331.788 157.599 L 330.581 154.917 324.920 154.917 L 319.259 154.917 318.244 157.216 C 317.686 158.480,317.134 159.687,317.016 159.898 C 316.767 160.345,313.251 160.467,313.325 160.026 C 313.367 159.779,317.888 149.754,319.719 145.849 C 320.213 144.796,321.133 142.784,321.764 141.379 C 323.262 138.045,323.154 138.150,325.009 138.239 L 326.564 138.314 327.458 140.106 M345.078 143.237 C 346.696 145.945,348.650 149.250,349.419 150.581 C 350.189 151.912,350.879 152.999,350.952 152.996 C 351.074 152.992,353.564 148.700,357.479 141.748 C 359.529 138.108,359.450 138.186,361.061 138.186 C 362.765 138.186,362.609 137.012,362.593 149.681 L 362.580 160.281 360.920 160.281 L 359.259 160.281 359.132 152.639 L 359.004 144.997 357.523 147.658 C 356.709 149.122,355.363 151.469,354.531 152.874 C 353.700 154.278,352.726 155.974,352.368 156.641 C 351.195 158.823,350.177 158.345,348.147 154.662 C 347.682 153.819,346.257 151.350,344.979 149.175 L 342.656 145.222 342.529 152.751 L 342.401 160.281 340.868 160.281 L 339.336 160.281 339.269 149.221 L 339.203 138.161 340.669 138.237 L 342.135 138.314 345.078 143.237 M273.409 141.612 C 273.333 141.811,273.308 143.851,273.353 146.146 L 273.436 150.319 276.203 150.392 C 281.955 150.543,283.999 149.465,284.238 146.152 C 284.499 142.541,282.616 141.252,277.081 141.252 C 274.273 141.252,273.519 141.326,273.409 141.612 M323.401 145.410 C 322.645 147.127,321.706 149.241,321.316 150.108 C 320.926 150.975,320.674 151.751,320.755 151.832 C 321.082 152.159,329.306 151.991,329.167 151.660 C 329.093 151.485,328.496 150.134,327.841 148.659 C 327.185 147.184,326.285 145.144,325.840 144.125 C 324.834 141.819,325.028 141.717,323.401 145.410 " stroke="none" fill="none" fill-rule="evenodd"></path><path id="path2" d="M39.281 94.952 C 40.023 95.004,41.172 95.004,41.835 94.951 C 42.497 94.899,41.890 94.856,40.485 94.857 C 39.080 94.858,38.538 94.901,39.281 94.952 M110.775 94.955 C 113.190 94.997,117.213 94.997,119.715 94.955 C 122.218 94.913,120.243 94.879,115.326 94.879 C 110.409 94.879,108.361 94.913,110.775 94.955 M51.341 98.467 C 51.818 98.959,52.265 99.361,52.335 99.361 C 52.405 99.361,52.073 98.959,51.596 98.467 C 51.120 97.976,50.672 97.573,50.602 97.573 C 50.532 97.573,50.864 97.976,51.341 98.467 M129.246 108.892 C 129.246 108.936,129.620 109.310,130.077 109.722 L 130.907 110.473 130.157 109.642 C 129.457 108.869,129.246 108.695,129.246 108.892 M88.433 115.492 C 87.550 116.350,86.866 117.092,86.914 117.140 C 86.962 117.188,87.739 116.483,88.640 115.574 C 90.716 113.479,90.564 113.419,88.433 115.492 M117.037 127.648 C 118.259 127.695,120.328 127.695,121.635 127.649 C 122.941 127.603,121.941 127.564,119.413 127.564 C 116.884 127.564,115.815 127.602,117.037 127.648 M179.032 138.628 L 177.859 138.722 177.011 140.689 C 176.544 141.771,175.852 143.346,175.472 144.189 C 175.092 145.032,174.356 146.699,173.836 147.893 C 173.316 149.087,172.611 150.660,172.269 151.389 C 171.927 152.117,171.644 152.807,171.640 152.921 C 171.635 153.036,171.349 153.704,171.003 154.406 C 170.658 155.109,170.374 155.837,170.373 156.024 C 170.363 157.428,169.055 154.732,164.602 144.132 L 162.324 138.711 160.856 138.704 C 160.048 138.700,159.387 138.764,159.387 138.846 C 159.387 138.994,160.376 141.370,161.558 144.061 C 161.897 144.834,162.528 146.328,162.960 147.382 C 163.392 148.436,163.912 149.642,164.116 150.064 C 164.320 150.485,165.347 152.842,166.397 155.300 L 168.307 159.770 169.826 159.846 L 171.345 159.921 171.855 158.824 C 172.571 157.285,173.460 155.314,174.711 152.490 C 175.302 151.156,176.004 149.582,176.271 148.992 C 176.538 148.403,176.756 147.859,176.756 147.785 C 176.756 147.710,177.168 146.755,177.672 145.663 C 179.381 141.958,180.843 138.674,180.843 138.539 C 180.843 138.485,180.699 138.463,180.524 138.488 C 180.348 138.513,179.677 138.576,179.032 138.628 M183.823 138.612 C 183.799 138.635,183.812 143.434,183.850 149.276 L 183.919 159.898 185.191 159.898 L 186.462 159.898 186.462 149.234 L 186.462 138.570 185.164 138.570 C 184.450 138.570,183.846 138.589,183.823 138.612 M193.550 138.625 L 192.848 138.731 192.848 149.315 L 192.848 159.898 194.253 159.898 L 195.658 159.898 195.658 151.980 C 195.658 145.111,195.709 144.061,196.041 144.061 C 196.252 144.061,196.424 144.155,196.424 144.269 C 196.424 144.384,197.094 145.275,197.913 146.249 C 198.732 147.223,200.405 149.285,201.630 150.830 C 202.855 152.375,203.997 153.812,204.168 154.023 C 204.338 154.234,205.446 155.642,206.630 157.152 L 208.781 159.898 210.010 159.898 L 211.239 159.898 211.239 149.140 L 211.239 138.382 210.664 138.536 C 210.348 138.621,209.704 138.692,209.233 138.694 L 208.376 138.697 208.466 146.594 C 208.564 155.115,208.548 155.244,207.568 153.977 C 203.177 148.296,196.465 139.894,195.448 138.804 C 195.112 138.443,194.887 138.422,193.550 138.625 M217.625 149.170 L 217.625 159.898 219.029 159.898 L 220.434 159.898 220.434 151.980 C 220.434 147.433,220.533 144.061,220.665 144.061 C 220.792 144.061,221.453 144.761,222.134 145.616 C 222.815 146.471,224.234 148.236,225.287 149.539 C 228.483 153.490,232.614 158.753,232.982 159.342 C 233.266 159.798,233.569 159.898,234.672 159.898 L 236.015 159.898 236.015 149.321 L 236.015 138.745 234.610 138.657 L 233.205 138.570 233.205 146.552 C 233.206 154.806,233.122 155.430,232.210 153.970 C 231.828 153.358,230.978 152.269,226.692 146.903 C 225.147 144.968,223.595 142.998,223.244 142.525 C 220.775 139.204,219.937 138.442,218.758 138.442 L 217.625 138.442 217.625 149.170 M257.442 138.645 C 256.025 138.720,255.999 138.736,255.323 139.922 C 254.474 141.414,250.604 147.770,249.965 148.723 C 249.502 149.414,248.787 149.679,248.787 149.160 C 248.787 149.013,248.544 148.565,248.246 148.163 C 247.949 147.761,246.541 145.495,245.117 143.129 L 242.529 138.825 241.060 138.748 C 240.252 138.706,239.591 138.719,239.591 138.776 C 239.591 139.007,243.154 144.990,245.515 148.722 C 247.793 152.324,247.765 152.231,247.765 156.239 L 247.765 159.898 249.170 159.898 L 250.575 159.898 250.575 156.158 L 250.575 152.418 251.943 150.219 C 253.357 147.948,255.030 145.243,255.438 144.572 C 255.565 144.361,256.428 142.942,257.354 141.418 C 258.281 139.894,259.002 138.629,258.957 138.608 C 258.913 138.587,258.231 138.604,257.442 138.645 M307.621 138.764 C 307.555 138.871,307.538 140.883,307.582 143.234 L 307.663 147.510 301.341 147.578 L 295.019 147.646 295.019 143.172 L 295.019 138.697 293.614 138.697 L 292.209 138.697 292.209 149.298 L 292.209 159.898 293.609 159.898 L 295.008 159.898 295.077 154.981 L 295.147 150.064 301.259 149.995 C 305.270 149.950,307.428 150.018,307.535 150.191 C 307.625 150.336,307.690 152.580,307.681 155.177 L 307.663 159.898 309.004 159.898 L 310.345 159.898 310.345 149.234 L 310.345 138.570 309.043 138.570 C 308.327 138.570,307.688 138.657,307.621 138.764 M322.739 140.038 C 322.010 141.649,320.753 144.391,319.666 146.743 C 317.848 150.676,317.497 151.459,317.497 151.573 C 317.497 151.642,316.990 152.768,316.372 154.074 C 315.753 155.381,314.896 157.231,314.467 158.186 L 313.687 159.922 315.223 159.846 L 316.759 159.770 317.347 158.365 C 317.670 157.593,318.178 156.412,318.475 155.742 L 319.015 154.524 324.942 154.593 L 330.868 154.662 332.036 157.280 L 333.203 159.898 334.673 159.898 C 335.482 159.898,336.143 159.848,336.143 159.788 C 336.143 159.673,334.260 155.579,333.198 153.384 C 332.859 152.682,331.673 150.096,330.565 147.637 C 329.456 145.179,328.046 142.104,327.431 140.805 L 326.312 138.442 324.887 138.442 L 323.461 138.442 322.739 140.038 M340.549 138.646 L 339.464 138.727 339.464 149.312 L 339.464 159.898 340.741 159.898 L 342.018 159.898 342.018 152.107 C 342.018 147.822,342.113 144.317,342.230 144.317 C 342.470 144.317,343.554 145.944,344.951 148.404 C 345.470 149.317,346.569 151.213,347.394 152.618 C 348.220 154.023,349.152 155.661,349.466 156.258 C 350.786 158.765,351.322 158.163,357.198 147.578 C 359.717 143.041,359.642 142.902,359.642 152.107 L 359.642 159.898 360.920 159.898 L 362.197 159.898 362.197 149.284 L 362.197 138.671 360.877 138.748 L 359.557 138.825 357.561 142.273 C 356.463 144.170,354.858 146.986,353.995 148.531 C 351.359 153.252,350.447 154.463,350.447 153.244 C 350.447 153.097,349.857 151.976,349.135 150.754 C 348.413 149.531,347.360 147.727,346.794 146.743 C 345.118 143.832,341.935 138.673,341.779 138.617 C 341.700 138.589,341.146 138.602,340.549 138.646 M270.286 149.297 L 270.370 159.897 271.704 159.898 L 273.038 159.898 273.109 156.513 L 273.180 153.129 277.650 152.998 C 281.596 152.882,282.270 152.798,283.397 152.283 C 289.009 149.718,288.974 142.025,283.339 139.430 L 281.748 138.697 275.975 138.697 L 270.201 138.697 270.286 149.297 M114.879 139.399 C 116.600 139.443,119.416 139.443,121.137 139.399 C 122.858 139.355,121.450 139.319,118.008 139.319 C 114.566 139.319,113.158 139.355,114.879 139.399 M281.922 141.475 C 285.645 143.390,285.612 148.483,281.865 150.218 C 281.013 150.612,280.193 150.692,276.948 150.697 L 273.052 150.702 273.052 145.866 L 273.052 141.030 273.755 140.905 C 275.506 140.595,280.948 140.974,281.922 141.475 M325.711 142.976 C 325.998 143.643,326.509 144.785,326.846 145.514 C 327.183 146.243,327.458 146.911,327.458 146.999 C 327.458 147.164,328.416 149.340,329.226 151.015 C 329.479 151.538,329.626 152.026,329.552 152.100 C 329.404 152.248,320.051 152.291,320.051 152.145 C 320.051 152.066,321.464 148.910,323.555 144.317 C 323.907 143.544,324.294 142.653,324.415 142.337 C 324.754 141.456,325.138 141.645,325.711 142.976 M341.697 155.875 C 341.648 156.893,341.609 156.060,341.609 154.023 C 341.609 151.986,341.648 151.153,341.697 152.171 C 341.745 153.190,341.745 154.856,341.697 155.875 M73.247 160.845 C 73.565 160.906,74.024 160.904,74.269 160.840 C 74.513 160.776,74.253 160.726,73.691 160.729 C 73.129 160.731,72.929 160.784,73.247 160.845 M79.630 160.844 C 79.946 160.905,80.463 160.905,80.779 160.844 C 81.095 160.783,80.837 160.734,80.204 160.734 C 79.572 160.734,79.314 160.783,79.630 160.844 M90.744 160.847 C 91.133 160.906,91.707 160.905,92.021 160.844 C 92.336 160.783,92.018 160.735,91.315 160.737 C 90.613 160.739,90.356 160.789,90.744 160.847 " stroke="none" fill="#9a9a9b" fill-rule="evenodd"></path><path id="path3" d="M124.457 94.940 C 124.703 95.004,125.105 95.004,125.351 94.940 C 125.597 94.876,125.396 94.823,124.904 94.823 C 124.413 94.823,124.211 94.876,124.457 94.940 M111.047 106.705 C 113.330 106.747,117.066 106.747,119.349 106.705 C 121.632 106.662,119.764 106.628,115.198 106.628 C 110.632 106.628,108.764 106.662,111.047 106.705 M144.918 117.114 C 144.917 118.378,144.961 118.927,145.014 118.335 C 145.068 117.742,145.068 116.707,145.016 116.036 C 144.963 115.364,144.919 115.849,144.918 117.114 M132.892 117.241 C 132.892 117.874,132.942 118.132,133.003 117.816 C 133.064 117.500,133.064 116.983,133.003 116.667 C 132.942 116.351,132.892 116.609,132.892 117.241 M111.430 127.646 C 112.098 127.699,113.190 127.699,113.857 127.646 C 114.524 127.594,113.978 127.551,112.644 127.551 C 111.309 127.551,110.763 127.594,111.430 127.646 M100.383 132.439 C 99.763 133.072,99.313 133.589,99.383 133.589 C 99.453 133.589,100.018 133.072,100.639 132.439 C 101.259 131.807,101.709 131.290,101.639 131.290 C 101.569 131.290,101.004 131.807,100.383 132.439 M159.132 138.635 C 159.132 138.742,159.678 138.794,160.345 138.751 C 162.286 138.626,162.453 138.504,160.728 138.472 C 159.850 138.455,159.132 138.529,159.132 138.635 M178.356 138.625 C 178.744 138.684,179.319 138.682,179.633 138.622 C 179.947 138.561,179.630 138.513,178.927 138.515 C 178.225 138.517,177.968 138.566,178.356 138.625 M184.610 138.622 C 184.927 138.683,185.444 138.683,185.760 138.622 C 186.076 138.561,185.817 138.511,185.185 138.511 C 184.553 138.511,184.294 138.561,184.610 138.622 M186.523 149.106 L 186.462 159.898 185.188 159.898 L 183.914 159.898 183.844 149.361 L 183.775 138.825 183.714 149.489 L 183.653 160.153 185.065 160.153 C 186.880 160.153,186.734 161.180,186.654 148.914 L 186.584 138.314 186.523 149.106 M208.876 138.622 C 209.192 138.683,209.709 138.683,210.026 138.622 C 210.342 138.561,210.083 138.511,209.451 138.511 C 208.819 138.511,208.560 138.561,208.876 138.622 M211.300 149.106 L 211.239 159.898 210.013 159.898 C 209.338 159.898,208.626 159.754,208.429 159.579 C 208.124 159.307,208.121 159.326,208.409 159.706 C 208.818 160.247,211.180 160.348,211.377 159.834 C 211.445 159.658,211.469 154.744,211.430 148.914 L 211.361 138.314 211.300 149.106 M234.674 138.622 L 236.015 138.724 236.015 149.298 L 236.015 159.871 234.674 159.973 L 233.333 160.074 234.738 160.050 L 236.143 160.026 236.143 149.298 L 236.143 138.570 234.738 138.545 L 233.333 138.521 234.674 138.622 M239.169 138.616 C 239.265 138.712,239.981 138.761,240.759 138.725 C 241.639 138.684,242.338 138.787,242.607 138.997 C 242.996 139.302,243.004 139.291,242.689 138.889 C 242.419 138.544,241.955 138.442,240.667 138.442 C 239.748 138.442,239.074 138.520,239.169 138.616 M256.646 138.627 C 257.105 138.684,257.794 138.683,258.178 138.624 C 258.562 138.566,258.186 138.520,257.344 138.521 C 256.501 138.522,256.187 138.570,256.646 138.627 M272.861 138.632 C 274.371 138.678,276.842 138.678,278.352 138.632 C 279.863 138.587,278.627 138.550,275.607 138.550 C 272.586 138.550,271.351 138.587,272.861 138.632 M292.015 149.234 L 292.082 160.026 293.487 160.045 L 294.891 160.064 293.550 159.968 L 292.209 159.872 292.209 149.298 L 292.209 138.723 293.678 138.631 L 295.147 138.538 293.548 138.490 L 291.948 138.442 292.015 149.234 M308.493 138.622 C 308.809 138.683,309.326 138.683,309.642 138.622 C 309.958 138.561,309.700 138.511,309.068 138.511 C 308.436 138.511,308.177 138.561,308.493 138.622 M310.406 149.093 L 310.345 159.872 308.876 159.964 L 307.407 160.057 308.884 160.105 C 310.774 160.167,310.617 161.227,310.536 148.914 L 310.467 138.314 310.406 149.093 M339.325 138.761 C 339.258 138.937,339.232 143.793,339.269 149.553 L 339.336 160.026 340.741 160.026 L 342.146 160.026 342.213 152.427 C 342.258 147.360,342.370 144.828,342.548 144.828 C 342.694 144.828,342.743 144.713,342.656 144.572 C 342.121 143.706,342.018 144.927,342.018 152.107 L 342.018 159.898 340.741 159.898 L 339.464 159.898 339.464 149.312 L 339.464 138.727 340.549 138.629 L 341.635 138.531 340.541 138.487 C 339.865 138.459,339.401 138.564,339.325 138.761 M359.458 138.761 C 359.322 138.937,359.130 139.253,359.032 139.464 C 358.933 139.674,359.044 139.588,359.279 139.272 C 359.619 138.813,359.955 138.697,360.951 138.697 L 362.197 138.697 362.197 149.298 L 362.197 159.898 360.920 159.898 L 359.642 159.898 359.642 152.107 C 359.642 145.619,359.583 144.317,359.287 144.317 C 359.091 144.317,358.858 144.505,358.770 144.736 C 358.635 145.087,358.673 145.102,358.998 144.832 C 359.345 144.545,359.387 145.357,359.387 152.344 L 359.387 160.179 360.856 160.102 L 362.324 160.026 362.391 149.234 L 362.458 138.442 361.081 138.442 C 360.282 138.442,359.601 138.576,359.458 138.761 M283.525 139.483 C 284.157 139.769,285.134 140.427,285.696 140.946 L 286.717 141.890 285.823 140.910 C 284.943 139.945,283.350 138.947,282.705 138.958 C 282.524 138.961,282.893 139.198,283.525 139.483 M124.457 139.384 C 124.703 139.448,125.105 139.448,125.351 139.384 C 125.597 139.320,125.396 139.267,124.904 139.267 C 124.413 139.267,124.211 139.320,124.457 139.384 M326.948 139.817 C 326.948 140.091,327.708 141.507,327.855 141.507 C 327.925 141.507,327.792 141.133,327.560 140.677 C 327.086 139.745,326.948 139.550,326.948 139.817 M162.981 140.358 C 162.981 140.498,163.145 140.900,163.346 141.252 C 163.547 141.603,163.711 141.775,163.711 141.635 C 163.711 141.494,163.547 141.092,163.346 140.741 C 163.145 140.390,162.981 140.217,162.981 140.358 M159.916 140.613 C 159.916 140.754,160.080 141.156,160.281 141.507 C 160.482 141.858,160.646 142.031,160.646 141.890 C 160.646 141.750,160.482 141.347,160.281 140.996 C 160.080 140.645,159.916 140.473,159.916 140.613 M275.415 140.928 C 276.082 140.981,277.174 140.981,277.842 140.928 C 278.509 140.876,277.963 140.833,276.628 140.833 C 275.294 140.833,274.748 140.876,275.415 140.928 M273.102 145.785 C 273.075 148.490,273.139 150.703,273.244 150.703 C 273.349 150.703,273.406 149.238,273.369 147.446 C 273.246 141.418,273.153 140.838,273.102 145.785 M279.970 141.087 C 280.029 141.137,280.479 141.252,280.971 141.342 C 281.600 141.458,281.751 141.432,281.481 141.255 C 281.135 141.028,279.717 140.871,279.970 141.087 M324.511 142.035 C 324.418 142.185,324.411 142.376,324.495 142.461 C 324.580 142.545,324.649 142.480,324.649 142.316 C 324.649 141.744,325.100 142.024,325.418 142.792 C 325.595 143.218,325.790 143.516,325.851 143.455 C 326.023 143.283,325.179 141.762,324.913 141.762 C 324.784 141.762,324.603 141.885,324.511 142.035 M217.439 144.061 C 217.439 144.693,217.488 144.952,217.549 144.636 C 217.610 144.320,217.610 143.803,217.549 143.487 C 217.488 143.170,217.439 143.429,217.439 144.061 M307.608 144.444 C 307.610 145.147,307.660 145.404,307.718 145.016 C 307.777 144.627,307.776 144.053,307.715 143.739 C 307.654 143.424,307.606 143.742,307.608 144.444 M164.514 143.934 C 164.514 144.074,164.678 144.476,164.879 144.828 C 165.079 145.179,165.244 145.351,165.244 145.211 C 165.244 145.070,165.079 144.668,164.879 144.317 C 164.678 143.966,164.514 143.793,164.514 143.934 M161.448 144.189 C 161.448 144.330,161.613 144.732,161.814 145.083 C 162.014 145.434,162.179 145.607,162.179 145.466 C 162.179 145.326,162.014 144.923,161.814 144.572 C 161.613 144.221,161.448 144.049,161.448 144.189 M195.658 152.002 L 195.658 159.943 194.137 159.857 C 193.301 159.809,192.709 159.863,192.823 159.976 C 192.937 160.090,193.650 160.147,194.408 160.104 L 195.785 160.026 195.853 152.135 L 195.921 144.244 196.464 144.728 C 197.004 145.208,197.005 145.208,196.654 144.636 C 195.744 143.154,195.658 143.788,195.658 152.002 M220.434 151.980 L 220.434 159.898 219.033 159.898 L 217.633 159.898 217.558 152.810 L 217.484 145.722 217.491 152.874 L 217.497 160.026 219.029 160.026 L 220.562 160.026 220.630 152.135 L 220.697 144.244 221.268 144.728 L 221.839 145.211 221.352 144.636 C 220.480 143.605,220.434 143.969,220.434 151.980 M243.134 145.211 C 243.272 145.492,243.572 145.951,243.801 146.232 L 244.217 146.743 243.966 146.232 C 243.828 145.951,243.528 145.492,243.300 145.211 L 242.884 144.700 243.134 145.211 M222.467 146.296 C 222.941 146.893,223.375 147.382,223.432 147.382 C 223.612 147.382,222.518 145.945,222.053 145.571 C 221.806 145.373,221.992 145.699,222.467 146.296 M177.139 146.783 C 176.925 147.296,176.808 147.775,176.880 147.847 C 176.953 147.919,177.011 147.915,177.011 147.839 C 177.011 147.762,177.185 147.283,177.398 146.774 C 177.611 146.266,177.727 145.849,177.657 145.849 C 177.587 145.849,177.354 146.269,177.139 146.783 M307.565 146.688 L 307.535 147.399 301.277 147.327 C 297.835 147.287,295.019 147.340,295.019 147.446 C 295.019 147.551,297.839 147.637,301.285 147.637 C 307.929 147.637,308.020 147.620,307.714 146.439 C 307.637 146.140,307.584 146.228,307.565 146.688 M173.988 147.010 C 173.560 147.949,173.642 148.149,174.104 147.295 C 174.320 146.897,174.449 146.523,174.391 146.464 C 174.333 146.406,174.151 146.651,173.988 147.010 M199.757 148.723 C 200.631 149.812,201.398 150.702,201.461 150.702 C 201.613 150.702,200.286 149.045,199.108 147.765 C 198.592 147.203,198.884 147.634,199.757 148.723 M287.299 147.510 C 287.210 147.931,287.069 148.506,286.987 148.787 C 286.905 149.068,287.018 148.911,287.238 148.437 C 287.458 147.964,287.598 147.390,287.550 147.160 C 287.499 146.919,287.393 147.067,287.299 147.510 M203.980 149.425 C 204.642 150.268,205.363 151.102,205.583 151.277 C 205.802 151.453,205.312 150.763,204.494 149.745 C 203.677 148.726,202.955 147.893,202.892 147.893 C 202.828 147.893,203.318 148.582,203.980 149.425 M283.564 148.699 C 282.842 149.590,281.809 150.152,280.376 150.436 C 279.477 150.614,279.430 150.650,280.077 150.669 C 281.391 150.707,284.840 148.560,284.273 148.057 C 284.213 148.004,283.894 148.292,283.564 148.699 M330.797 148.020 C 330.797 148.161,330.961 148.563,331.162 148.914 C 331.363 149.266,331.527 149.438,331.527 149.298 C 331.527 149.157,331.363 148.755,331.162 148.404 C 330.961 148.052,330.797 147.880,330.797 148.020 M321.370 149.053 C 320.942 149.992,321.023 150.193,321.486 149.339 C 321.702 148.940,321.831 148.566,321.773 148.508 C 321.714 148.449,321.533 148.695,321.370 149.053 M285.555 150.894 L 284.674 151.852 285.632 150.972 C 286.524 150.152,286.707 149.936,286.512 149.936 C 286.470 149.936,286.039 150.367,285.555 150.894 M295.186 150.128 C 295.121 150.233,297.785 150.286,301.106 150.246 C 306.652 150.179,307.174 150.210,307.502 150.629 C 307.843 151.065,307.852 151.065,307.697 150.618 C 307.608 150.360,307.535 150.102,307.535 150.043 C 307.535 149.848,295.307 149.932,295.186 150.128 M229.880 150.950 C 230.177 151.367,230.550 151.789,230.710 151.888 C 230.869 151.986,230.678 151.645,230.284 151.129 C 229.430 150.010,229.109 149.867,229.880 150.950 M167.323 150.575 C 167.323 150.715,167.488 151.117,167.688 151.469 C 167.889 151.820,168.053 151.992,168.053 151.852 C 168.053 151.711,167.889 151.309,167.688 150.958 C 167.488 150.607,167.323 150.434,167.323 150.575 M341.609 154.023 C 341.609 156.060,341.648 156.893,341.697 155.875 C 341.745 154.856,341.745 153.190,341.697 152.171 C 341.648 151.153,341.609 151.986,341.609 154.023 M316.904 152.375 C 316.304 153.633,316.388 153.847,317.016 152.658 C 317.301 152.118,317.489 151.631,317.433 151.576 C 317.378 151.520,317.140 151.880,316.904 152.375 M247.510 156.026 L 247.637 160.026 249.107 160.047 L 250.577 160.068 249.171 159.970 L 247.765 159.872 247.765 156.069 C 247.765 153.977,247.679 152.212,247.573 152.146 C 247.468 152.081,247.439 153.827,247.510 156.026 M332.567 152.077 C 332.567 152.352,333.327 153.768,333.474 153.768 C 333.544 153.768,333.412 153.394,333.180 152.937 C 332.706 152.005,332.567 151.811,332.567 152.077 M171.179 153.499 C 171.030 153.928,170.962 154.278,171.029 154.278 C 171.201 154.278,171.683 152.952,171.556 152.825 C 171.499 152.767,171.329 153.070,171.179 153.499 M207.112 153.407 C 208.081 154.857,209.149 155.076,208.601 153.712 C 208.529 153.532,208.456 153.672,208.440 154.023 C 208.411 154.639,208.378 154.626,207.497 153.640 C 206.810 152.871,206.714 152.813,207.112 153.407 M270.322 154.151 C 270.323 154.994,270.371 155.308,270.428 154.849 C 270.485 154.389,270.483 153.700,270.425 153.316 C 270.367 152.932,270.320 153.308,270.322 154.151 M165.280 153.129 C 165.280 153.269,165.444 153.672,165.645 154.023 C 165.846 154.374,166.010 154.547,166.010 154.406 C 166.010 154.266,165.846 153.863,165.645 153.512 C 165.444 153.161,165.280 152.989,165.280 153.129 M273.223 153.172 C 273.129 153.265,273.052 154.811,273.052 156.607 L 273.052 159.872 271.646 159.970 L 270.240 160.068 271.710 160.047 L 273.180 160.026 273.251 156.648 L 273.323 153.270 277.083 153.192 L 280.843 153.114 277.118 153.058 C 275.069 153.027,273.316 153.078,273.223 153.172 M232.209 153.959 C 232.403 154.275,232.726 154.534,232.926 154.534 C 233.127 154.534,233.243 154.504,233.184 154.467 C 233.126 154.431,232.803 154.172,232.467 153.893 L 231.856 153.384 232.209 153.959 M307.628 155.939 C 307.629 157.344,307.672 157.886,307.724 157.143 C 307.775 156.401,307.775 155.252,307.723 154.589 C 307.670 153.927,307.628 154.534,307.628 155.939 M229.630 155.300 C 230.075 155.862,230.496 156.322,230.567 156.322 C 230.637 156.322,230.330 155.862,229.885 155.300 C 229.440 154.738,229.018 154.278,228.948 154.278 C 228.878 154.278,229.185 154.738,229.630 155.300 M315.631 155.176 C 315.397 155.666,315.259 156.066,315.323 156.066 C 315.498 156.066,316.273 154.502,316.157 154.386 C 316.101 154.330,315.865 154.686,315.631 155.176 M330.957 155.425 C 331.190 155.915,331.427 156.270,331.482 156.215 C 331.599 156.098,330.824 154.534,330.649 154.534 C 330.585 154.534,330.723 154.935,330.957 155.425 M348.939 155.668 C 349.234 156.168,349.525 156.577,349.585 156.577 C 349.766 156.577,348.937 155.089,348.660 154.918 C 348.519 154.830,348.644 155.168,348.939 155.668 M173.040 156.090 C 172.815 156.525,172.677 156.926,172.732 156.981 C 172.788 157.036,173.024 156.681,173.258 156.191 C 173.783 155.089,173.601 155.005,173.040 156.090 M270.316 156.960 C 270.318 157.663,270.367 157.920,270.426 157.532 C 270.485 157.143,270.483 156.569,270.422 156.254 C 270.362 155.940,270.314 156.258,270.316 156.960 M64.623 156.657 C 64.623 156.701,64.997 157.075,65.453 157.487 L 66.284 158.238 65.533 157.407 C 64.834 156.634,64.623 156.460,64.623 156.657 M166.812 156.705 C 166.812 156.845,166.977 157.248,167.178 157.599 C 167.378 157.950,167.543 158.123,167.543 157.982 C 167.543 157.842,167.378 157.439,167.178 157.088 C 166.977 156.737,166.812 156.564,166.812 156.705 M317.670 157.483 C 317.070 158.741,317.155 158.956,317.782 157.766 C 318.067 157.226,318.255 156.739,318.200 156.684 C 318.144 156.629,317.906 156.988,317.670 157.483 M207.152 158.110 C 207.597 158.672,208.019 159.132,208.089 159.132 C 208.159 159.132,207.852 158.672,207.407 158.110 C 206.962 157.548,206.541 157.088,206.470 157.088 C 206.400 157.088,206.707 157.548,207.152 158.110 M335.143 157.471 C 335.143 157.612,335.363 158.129,335.632 158.621 C 335.901 159.112,336.122 159.400,336.122 159.259 C 336.122 159.119,335.901 158.602,335.632 158.110 C 335.363 157.618,335.143 157.331,335.143 157.471 M350.255 157.520 C 350.501 157.584,350.904 157.584,351.149 157.520 C 351.395 157.455,351.194 157.403,350.702 157.403 C 350.211 157.403,350.010 157.455,350.255 157.520 M314.218 158.248 C 313.790 159.188,313.871 159.388,314.334 158.534 C 314.550 158.135,314.679 157.761,314.621 157.703 C 314.562 157.645,314.381 157.890,314.218 158.248 M332.074 157.727 C 332.074 157.867,332.239 158.269,332.439 158.621 C 332.640 158.972,332.804 159.144,332.804 159.004 C 332.804 158.863,332.640 158.461,332.439 158.110 C 332.239 157.759,332.074 157.586,332.074 157.727 M232.296 158.705 C 232.689 159.220,233.062 159.642,233.126 159.642 C 233.303 159.642,232.197 158.148,231.870 157.946 C 231.711 157.848,231.902 158.189,232.296 158.705 M168.239 159.962 C 168.304 160.067,169.033 160.153,169.860 160.153 C 170.686 160.153,171.415 160.067,171.480 159.962 C 171.545 159.856,170.816 159.770,169.860 159.770 C 168.903 159.770,168.174 159.856,168.239 159.962 M315.198 159.898 L 313.538 160.065 315.119 160.109 C 315.989 160.133,316.771 160.038,316.858 159.898 C 316.945 159.757,316.981 159.662,316.937 159.686 C 316.894 159.711,316.111 159.806,315.198 159.898 M334.610 159.898 L 332.950 160.065 334.674 160.109 C 335.683 160.135,336.398 160.047,336.398 159.898 C 336.398 159.757,336.370 159.662,336.335 159.686 C 336.299 159.711,335.524 159.806,334.610 159.898 " stroke="none" fill="#a1a7ae" fill-rule="evenodd"></path><path id="path4" d="M39.152 94.696 C 39.824 94.749,40.858 94.749,41.451 94.695 C 42.044 94.641,41.494 94.598,40.230 94.599 C 38.966 94.600,38.480 94.644,39.152 94.696 M111.175 94.699 C 113.528 94.742,117.379 94.742,119.732 94.699 C 122.085 94.657,120.160 94.623,115.453 94.623 C 110.747 94.623,108.822 94.657,111.175 94.699 M128.344 95.413 C 129.041 95.604,129.655 95.717,129.709 95.664 C 129.836 95.536,127.950 95.016,127.458 95.043 C 127.248 95.055,127.646 95.221,128.344 95.413 M38.077 95.913 C 38.077 96.054,38.241 96.456,38.442 96.807 C 38.643 97.158,38.807 97.331,38.807 97.190 C 38.807 97.050,38.643 96.648,38.442 96.296 C 38.241 95.945,38.077 95.773,38.077 95.913 M99.553 96.442 C 98.563 96.980,98.675 97.165,99.681 96.654 C 100.644 96.164,100.814 96.037,100.490 96.051 C 100.361 96.057,99.939 96.233,99.553 96.442 M131.567 96.392 C 131.829 96.627,133.333 97.318,133.333 97.203 C 133.333 97.056,131.917 96.296,131.643 96.296 C 131.543 96.296,131.508 96.339,131.567 96.392 M51.469 98.340 C 52.017 98.902,52.524 99.361,52.594 99.361 C 52.664 99.361,52.273 98.902,51.724 98.340 C 51.175 97.778,50.669 97.318,50.599 97.318 C 50.529 97.318,50.920 97.778,51.469 98.340 M133.610 97.401 C 134.044 97.741,135.632 98.611,135.632 98.509 C 135.632 98.344,133.975 97.318,133.708 97.318 C 133.595 97.318,133.552 97.356,133.610 97.401 M39.354 98.978 C 39.354 99.119,39.518 99.521,39.719 99.872 C 39.920 100.223,40.084 100.396,40.084 100.255 C 40.084 100.115,39.920 99.713,39.719 99.361 C 39.518 99.010,39.354 98.838,39.354 98.978 M138.687 101.213 C 139.313 101.881,139.859 102.427,139.900 102.427 C 140.092 102.427,139.889 102.197,138.761 101.139 L 137.548 100.000 138.687 101.213 M92.462 103.257 C 92.184 103.713,91.956 104.192,91.955 104.321 C 91.954 104.612,91.990 104.564,92.666 103.384 C 93.337 102.211,93.165 102.103,92.462 103.257 M55.446 104.853 C 55.446 104.994,55.610 105.396,55.811 105.747 C 56.012 106.098,56.176 106.271,56.176 106.130 C 56.176 105.990,56.012 105.587,55.811 105.236 C 55.610 104.885,55.446 104.713,55.446 104.853 M42.419 106.386 C 42.419 106.526,42.583 106.928,42.784 107.280 C 42.985 107.631,43.149 107.803,43.149 107.663 C 43.149 107.522,42.985 107.120,42.784 106.769 C 42.583 106.418,42.419 106.245,42.419 106.386 M126.692 107.663 C 127.043 107.864,127.446 108.028,127.586 108.028 C 127.727 108.028,127.554 107.864,127.203 107.663 C 126.852 107.462,126.450 107.298,126.309 107.298 C 126.169 107.298,126.341 107.462,126.692 107.663 M128.991 108.892 C 128.991 108.936,129.365 109.310,129.821 109.722 L 130.651 110.473 129.901 109.642 C 129.202 108.869,128.991 108.695,128.991 108.892 M98.531 112.023 C 97.541 112.561,97.653 112.746,98.659 112.235 C 99.622 111.745,99.792 111.618,99.468 111.632 C 99.339 111.638,98.918 111.814,98.531 112.023 M88.365 112.551 C 88.224 112.922,88.156 113.273,88.214 113.331 C 88.272 113.389,88.441 113.085,88.591 112.657 C 88.923 111.704,88.722 111.610,88.365 112.551 M58.511 112.261 C 58.511 112.401,58.675 112.803,58.876 113.155 C 59.077 113.506,59.241 113.678,59.241 113.538 C 59.241 113.397,59.077 112.995,58.876 112.644 C 58.675 112.292,58.511 112.120,58.511 112.261 M144.887 114.176 C 144.887 114.668,144.939 114.869,145.004 114.623 C 145.068 114.377,145.068 113.975,145.004 113.729 C 144.939 113.483,144.887 113.685,144.887 114.176 M88.882 115.390 L 87.229 117.114 88.953 115.461 C 89.901 114.552,90.677 113.776,90.677 113.737 C 90.677 113.549,90.417 113.788,88.882 115.390 M46.251 115.326 C 46.251 115.466,46.415 115.868,46.616 116.220 C 46.816 116.571,46.981 116.743,46.981 116.603 C 46.981 116.462,46.816 116.060,46.616 115.709 C 46.415 115.358,46.251 115.185,46.251 115.326 M132.631 116.092 C 132.634 116.654,132.687 116.854,132.748 116.536 C 132.809 116.218,132.806 115.758,132.743 115.514 C 132.679 115.270,132.629 115.530,132.631 116.092 M145.160 117.241 C 145.160 118.014,145.207 118.330,145.266 117.944 C 145.324 117.557,145.324 116.925,145.266 116.539 C 145.207 116.153,145.160 116.469,145.160 117.241 M89.009 118.838 L 87.484 120.434 89.080 118.910 C 90.563 117.493,90.794 117.241,90.605 117.241 C 90.566 117.241,89.847 117.960,89.009 118.838 M132.631 118.135 C 132.634 118.697,132.687 118.897,132.748 118.579 C 132.809 118.262,132.806 117.802,132.743 117.558 C 132.679 117.313,132.629 117.573,132.631 118.135 M47.783 118.902 C 47.783 119.042,47.947 119.444,48.148 119.796 C 48.349 120.147,48.513 120.319,48.513 120.179 C 48.513 120.038,48.349 119.636,48.148 119.285 C 47.947 118.934,47.783 118.761,47.783 118.902 M61.321 118.902 C 61.321 119.042,61.485 119.444,61.686 119.796 C 61.887 120.147,62.051 120.319,62.051 120.179 C 62.051 120.038,61.887 119.636,61.686 119.285 C 61.485 118.934,61.321 118.761,61.321 118.902 M144.887 120.051 C 144.887 120.543,144.939 120.744,145.004 120.498 C 145.068 120.252,145.068 119.850,145.004 119.604 C 144.939 119.358,144.887 119.559,144.887 120.051 M131.397 122.135 C 131.167 122.578,130.450 123.526,129.803 124.242 L 128.627 125.543 129.792 124.442 C 130.830 123.461,132.309 121.328,131.951 121.328 C 131.876 121.328,131.626 121.691,131.397 122.135 M62.598 121.967 C 62.598 122.107,62.762 122.510,62.963 122.861 C 63.164 123.212,63.328 123.384,63.328 123.244 C 63.328 123.103,63.164 122.701,62.963 122.350 C 62.762 121.999,62.598 121.826,62.598 121.967 M85.774 122.542 C 85.324 123.066,84.987 123.627,85.122 123.627 C 85.174 123.627,85.472 123.282,85.783 122.861 C 86.399 122.028,86.393 121.821,85.774 122.542 M97.359 122.999 C 96.932 123.939,97.013 124.139,97.476 123.285 C 97.692 122.886,97.821 122.512,97.763 122.454 C 97.704 122.396,97.523 122.641,97.359 122.999 M84.389 124.457 C 83.509 125.949,83.452 126.076,83.900 125.543 C 84.419 124.925,84.866 124.138,84.698 124.138 C 84.631 124.138,84.492 124.282,84.389 124.457 M63.875 125.032 C 63.875 125.172,64.039 125.575,64.240 125.926 C 64.441 126.277,64.605 126.450,64.605 126.309 C 64.605 126.169,64.441 125.766,64.240 125.415 C 64.039 125.064,63.875 124.891,63.875 125.032 M83.111 126.501 C 82.232 127.992,82.175 128.120,82.623 127.586 C 83.141 126.968,83.589 126.181,83.421 126.181 C 83.354 126.181,83.215 126.325,83.111 126.501 M113.985 127.394 C 115.916 127.437,119.077 127.437,121.009 127.394 C 122.941 127.351,121.360 127.315,117.497 127.315 C 113.633 127.315,112.053 127.351,113.985 127.394 M94.550 129.641 C 94.122 130.580,94.203 130.780,94.666 129.926 C 94.882 129.528,95.011 129.154,94.953 129.095 C 94.895 129.037,94.713 129.282,94.550 129.641 M139.991 131.354 C 139.368 132.091,139.178 132.407,139.569 132.056 C 140.228 131.465,141.390 130.013,141.205 130.013 C 141.160 130.013,140.614 130.616,139.991 131.354 M66.685 131.673 C 66.685 131.814,66.849 132.216,67.050 132.567 C 67.251 132.918,67.415 133.091,67.415 132.950 C 67.415 132.810,67.251 132.407,67.050 132.056 C 66.849 131.705,66.685 131.533,66.685 131.673 M100.239 132.375 L 99.489 133.206 100.319 132.455 C 101.093 131.756,101.267 131.545,101.069 131.545 C 101.026 131.545,100.652 131.919,100.239 132.375 M79.867 132.962 C 79.267 134.220,79.351 134.434,79.979 133.245 C 80.264 132.705,80.452 132.218,80.396 132.163 C 80.341 132.108,80.103 132.467,79.867 132.962 M93.273 132.706 C 92.845 133.645,92.926 133.845,93.389 132.991 C 93.605 132.593,93.734 132.219,93.676 132.160 C 93.617 132.102,93.436 132.347,93.273 132.706 M137.037 134.299 C 136.615 134.681,135.925 135.259,135.504 135.582 C 135.083 135.906,134.968 136.057,135.249 135.918 C 135.918 135.585,138.307 133.587,138.023 133.596 C 137.902 133.600,137.458 133.916,137.037 134.299 M54.680 134.994 C 54.680 135.134,54.844 135.536,55.045 135.888 C 55.245 136.239,55.410 136.411,55.410 136.271 C 55.410 136.130,55.245 135.728,55.045 135.377 C 54.844 135.026,54.680 134.853,54.680 134.994 M91.996 135.771 C 91.568 136.710,91.649 136.911,92.112 136.057 C 92.328 135.658,92.457 135.284,92.399 135.225 C 92.340 135.167,92.159 135.412,91.996 135.771 M131.290 137.803 C 130.939 138.004,130.766 138.168,130.907 138.168 C 131.047 138.168,131.450 138.004,131.801 137.803 C 132.152 137.603,132.324 137.438,132.184 137.438 C 132.043 137.438,131.641 137.603,131.290 137.803 M69.239 137.803 C 69.239 137.944,69.403 138.346,69.604 138.697 C 69.805 139.049,69.969 139.221,69.969 139.080 C 69.969 138.940,69.805 138.538,69.604 138.186 C 69.403 137.835,69.239 137.663,69.239 137.803 M158.876 138.437 C 158.876 138.819,159.693 140.776,159.805 140.663 C 159.860 140.608,159.731 140.147,159.518 139.639 C 159.305 139.130,159.132 138.653,159.132 138.578 C 159.132 138.289,162.108 138.456,162.416 138.761 C 162.674 139.017,162.704 138.992,162.568 138.633 C 162.378 138.134,158.876 137.948,158.876 138.437 M179.176 138.377 C 180.016 138.429,180.790 138.608,180.897 138.776 C 181.027 138.981,181.092 138.935,181.094 138.633 C 181.098 138.247,180.866 138.193,179.374 138.235 L 177.650 138.283 179.176 138.377 M183.519 138.494 C 183.449 138.676,183.422 143.653,183.458 149.553 L 183.525 160.281 185.185 160.281 L 186.845 160.281 186.845 149.298 L 186.845 138.314 185.246 138.238 C 184.112 138.184,183.609 138.259,183.519 138.494 M192.709 138.506 C 192.642 138.682,192.618 143.538,192.656 149.298 L 192.726 159.770 192.787 149.106 L 192.848 138.442 194.091 138.442 C 195.326 138.442,195.343 138.453,196.918 140.358 C 197.790 141.411,198.570 142.273,198.652 142.273 C 198.812 142.273,198.785 142.240,196.704 139.783 C 195.319 138.148,193.117 137.444,192.709 138.506 M208.355 138.346 C 208.255 138.446,208.174 142.038,208.174 146.329 L 208.174 154.131 207.384 153.247 C 206.628 152.400,206.631 152.410,207.448 153.502 L 208.301 154.641 208.369 146.542 L 208.436 138.442 209.968 138.442 L 211.500 138.442 211.433 149.234 L 211.367 160.026 210.133 160.104 C 209.392 160.151,208.730 160.050,208.473 159.849 C 208.090 159.549,208.082 159.561,208.397 159.962 C 208.832 160.517,211.028 160.587,211.466 160.060 C 211.674 159.809,211.737 156.698,211.689 149.013 L 211.622 138.314 210.079 138.240 C 209.230 138.198,208.454 138.246,208.355 138.346 M217.477 138.530 C 217.404 138.718,217.385 139.724,217.434 140.765 L 217.523 142.656 217.574 140.549 L 217.625 138.442 218.838 138.440 C 219.961 138.438,220.134 138.528,221.163 139.653 L 222.274 140.868 221.203 139.527 C 220.081 138.123,217.861 137.529,217.477 138.530 M233.120 138.357 C 233.027 138.450,232.950 142.031,232.950 146.315 L 232.950 154.102 232.375 153.616 L 231.801 153.129 232.287 153.704 C 233.160 154.735,233.206 154.371,233.206 146.337 L 233.206 138.397 234.739 138.483 C 235.582 138.531,236.271 138.483,236.271 138.378 C 236.271 138.141,233.356 138.121,233.120 138.357 M240.603 138.377 C 241.511 138.428,242.431 138.607,242.647 138.775 C 242.991 139.043,242.996 139.025,242.689 138.633 C 242.410 138.278,241.994 138.196,240.646 138.236 L 238.953 138.285 240.603 138.377 M255.678 138.761 C 255.427 139.280,255.435 139.292,255.761 138.889 C 256.035 138.550,256.506 138.442,257.712 138.442 L 259.301 138.442 258.748 139.336 C 258.445 139.828,258.251 140.230,258.319 140.230 C 258.557 140.230,259.479 138.590,259.354 138.389 C 259.029 137.863,255.963 138.173,255.678 138.761 M270.104 138.506 C 270.037 138.681,270.012 143.653,270.048 149.553 L 270.115 160.281 271.711 160.357 C 272.589 160.399,273.308 160.341,273.308 160.229 C 273.309 160.117,272.619 160.064,271.776 160.112 L 270.243 160.199 270.243 149.299 L 270.243 138.400 276.136 138.485 C 279.378 138.531,281.763 138.495,281.436 138.403 C 280.251 138.072,270.236 138.162,270.104 138.506 M291.880 138.346 C 291.624 138.602,291.661 159.698,291.918 160.103 C 292.063 160.332,292.604 160.412,293.638 160.359 L 295.147 160.281 295.216 155.364 L 295.286 150.447 301.277 150.447 L 307.269 150.447 307.338 155.364 L 307.407 160.281 309.068 160.281 L 310.728 160.281 310.728 149.298 L 310.728 138.314 309.068 138.314 L 307.407 138.314 307.280 142.848 C 307.209 145.342,307.238 147.382,307.344 147.382 C 307.449 147.382,307.535 145.370,307.535 142.912 L 307.535 138.442 309.070 138.442 L 310.606 138.442 310.539 149.234 L 310.473 160.026 309.009 160.102 L 307.546 160.178 307.477 155.249 L 307.407 150.319 301.277 150.319 L 295.147 150.319 295.077 155.249 L 295.008 160.178 293.545 160.102 L 292.082 160.026 292.015 149.234 L 291.948 138.442 293.484 138.442 L 295.019 138.442 295.019 142.769 C 295.019 145.149,295.105 147.150,295.211 147.215 C 295.316 147.281,295.345 145.305,295.275 142.824 L 295.147 138.314 293.604 138.240 C 292.755 138.198,291.979 138.246,291.880 138.346 M322.865 139.005 C 322.583 139.468,322.356 139.962,322.362 140.102 C 322.368 140.243,322.600 139.927,322.878 139.400 C 323.376 138.457,323.407 138.442,324.905 138.442 L 326.427 138.442 327.059 139.655 C 327.406 140.322,327.694 140.754,327.698 140.613 C 327.763 138.462,323.967 137.198,322.865 139.005 M339.208 138.365 C 339.208 138.478,339.802 138.528,340.527 138.478 C 341.663 138.400,341.916 138.471,342.347 138.989 L 342.847 139.591 342.467 138.953 C 342.090 138.321,339.208 137.801,339.208 138.365 M359.332 138.633 C 358.885 139.145,358.292 140.230,358.459 140.230 C 358.520 140.230,358.804 139.834,359.090 139.349 C 359.574 138.529,359.712 138.462,361.095 138.376 L 362.580 138.283 361.151 138.235 C 360.066 138.198,359.628 138.294,359.332 138.633 M186.657 149.234 L 186.590 160.026 185.121 160.102 L 183.653 160.179 183.653 149.310 L 183.653 138.442 185.188 138.442 L 186.723 138.442 186.657 149.234 M177.127 139.487 C 176.902 139.922,176.764 140.323,176.819 140.378 C 176.875 140.434,177.111 140.078,177.345 139.588 C 177.870 138.487,177.688 138.402,177.127 139.487 M362.525 139.847 C 362.527 140.549,362.577 140.806,362.635 140.418 C 362.694 140.030,362.693 139.455,362.632 139.141 C 362.571 138.827,362.523 139.144,362.525 139.847 M126.309 139.208 C 125.621 139.383,125.608 139.404,126.181 139.408 C 126.533 139.411,127.107 139.321,127.458 139.208 C 128.317 138.933,127.390 138.933,126.309 139.208 M283.908 139.376 C 284.994 139.947,286.297 141.227,286.856 142.273 C 287.119 142.765,287.339 143.040,287.345 142.884 C 287.384 141.899,284.426 138.967,283.397 138.972 C 283.257 138.973,283.487 139.154,283.908 139.376 M162.726 139.336 C 162.726 139.476,162.890 139.879,163.091 140.230 C 163.291 140.581,163.456 140.754,163.456 140.613 C 163.456 140.473,163.291 140.070,163.091 139.719 C 162.890 139.368,162.726 139.195,162.726 139.336 M243.134 139.591 C 243.272 139.872,243.572 140.332,243.801 140.613 L 244.217 141.124 243.966 140.613 C 243.828 140.332,243.528 139.872,243.300 139.591 L 242.884 139.080 243.134 139.591 M114.736 139.654 C 116.519 139.698,119.507 139.698,121.377 139.655 C 123.247 139.611,121.788 139.575,118.135 139.575 C 114.483 139.575,112.953 139.611,114.736 139.654 M255.014 139.783 C 254.135 141.275,254.078 141.402,254.526 140.868 C 255.044 140.250,255.492 139.464,255.324 139.464 C 255.257 139.464,255.118 139.607,255.014 139.783 M343.314 140.613 C 343.629 141.175,343.997 141.750,344.131 141.890 C 344.514 142.291,343.639 140.673,343.165 140.102 C 342.931 139.821,342.998 140.051,343.314 140.613 M108.839 141.133 C 108.403 141.629,108.049 142.175,108.054 142.346 C 108.058 142.517,108.188 142.427,108.343 142.146 C 108.498 141.865,108.919 141.319,109.277 140.932 C 109.636 140.546,109.862 140.230,109.781 140.230 C 109.699 140.230,109.275 140.636,108.839 141.133 M179.739 141.391 C 179.139 142.649,179.224 142.864,179.851 141.674 C 180.136 141.134,180.324 140.647,180.269 140.592 C 180.213 140.537,179.975 140.896,179.739 141.391 M257.668 141.060 C 257.109 141.922,256.608 142.948,256.888 142.656 C 257.246 142.284,258.300 140.485,258.160 140.485 C 258.094 140.485,257.873 140.744,257.668 141.060 M273.307 141.188 C 273.307 141.293,274.313 141.349,275.542 141.311 C 279.687 141.184,280.096 141.089,276.692 141.042 C 274.831 141.017,273.308 141.082,273.307 141.188 M321.502 141.902 C 320.902 143.160,320.986 143.374,321.613 142.185 C 321.898 141.645,322.086 141.158,322.031 141.103 C 321.976 141.048,321.738 141.407,321.502 141.902 M357.471 141.762 C 357.253 142.184,357.132 142.529,357.203 142.529 C 357.273 142.529,357.509 142.184,357.727 141.762 C 357.945 141.341,358.065 140.996,357.995 140.996 C 357.925 140.996,357.689 141.341,357.471 141.762 M240.996 142.018 C 241.214 142.439,241.450 142.784,241.520 142.784 C 241.590 142.784,241.470 142.439,241.252 142.018 C 241.034 141.596,240.798 141.252,240.728 141.252 C 240.657 141.252,240.778 141.596,240.996 142.018 M57.489 141.635 C 57.489 141.775,57.654 142.178,57.854 142.529 C 58.055 142.880,58.219 143.052,58.219 142.912 C 58.219 142.771,58.055 142.369,57.854 142.018 C 57.654 141.667,57.489 141.494,57.489 141.635 M160.171 141.635 C 160.171 141.775,160.336 142.178,160.536 142.529 C 160.737 142.880,160.901 143.052,160.901 142.912 C 160.901 142.771,160.737 142.369,160.536 142.018 C 160.336 141.667,160.171 141.494,160.171 141.635 M163.825 141.762 C 164.049 142.592,164.821 144.332,164.920 144.233 C 164.978 144.175,164.732 143.509,164.373 142.753 C 164.015 141.998,163.768 141.552,163.825 141.762 M175.719 142.693 C 175.439 143.345,175.255 143.922,175.308 143.976 C 175.362 144.029,175.646 143.496,175.939 142.790 C 176.232 142.084,176.417 141.507,176.350 141.507 C 176.282 141.507,175.998 142.041,175.719 142.693 M282.190 142.019 C 283.275 142.680,283.630 142.679,282.631 142.018 C 282.209 141.739,281.750 141.510,281.609 141.510 C 281.469 141.509,281.730 141.738,282.190 142.019 M328.335 142.399 C 328.764 143.426,329.227 144.262,329.239 144.030 C 329.251 143.773,328.212 141.507,328.082 141.507 C 328.016 141.507,328.130 141.908,328.335 142.399 M223.973 143.231 C 224.438 143.828,224.875 144.317,224.943 144.317 C 225.143 144.317,224.076 142.900,223.580 142.506 C 223.330 142.308,223.507 142.634,223.973 143.231 M344.539 142.656 C 344.677 142.937,344.977 143.397,345.206 143.678 L 345.622 144.189 345.371 143.678 C 345.233 143.397,344.933 142.937,344.704 142.656 L 344.289 142.146 344.539 142.656 M324.056 143.435 C 323.456 144.693,323.540 144.907,324.168 143.718 C 324.453 143.178,324.641 142.691,324.585 142.636 C 324.530 142.580,324.292 142.940,324.056 143.435 M241.969 143.678 C 242.185 144.100,242.553 144.674,242.787 144.955 C 243.020 145.236,242.953 145.006,242.638 144.444 C 241.941 143.205,241.420 142.607,241.969 143.678 M256.292 143.359 C 255.412 144.851,255.355 144.978,255.803 144.444 C 256.322 143.826,256.769 143.040,256.601 143.040 C 256.534 143.040,256.395 143.183,256.292 143.359 M325.433 143.167 C 325.433 143.308,325.597 143.710,325.798 144.061 C 325.999 144.413,326.163 144.585,326.163 144.444 C 326.163 144.304,325.999 143.902,325.798 143.550 C 325.597 143.199,325.433 143.027,325.433 143.167 M107.321 143.945 C 106.893 144.884,106.975 145.084,107.438 144.230 C 107.654 143.832,107.783 143.457,107.724 143.399 C 107.666 143.341,107.484 143.586,107.321 143.945 M178.462 144.201 C 177.862 145.459,177.946 145.673,178.574 144.484 C 178.859 143.944,179.047 143.457,178.991 143.402 C 178.936 143.347,178.698 143.706,178.462 144.201 M93.784 144.455 C 93.356 145.395,93.437 145.595,93.900 144.741 C 94.116 144.342,94.245 143.968,94.187 143.910 C 94.128 143.852,93.947 144.097,93.784 144.455 M246.251 144.700 C 246.567 145.262,246.935 145.837,247.069 145.977 C 247.451 146.378,246.577 144.760,246.102 144.189 C 245.869 143.908,245.936 144.138,246.251 144.700 M201.118 145.466 C 201.756 146.309,202.637 147.401,203.076 147.893 C 203.514 148.384,203.351 148.097,202.713 147.254 C 202.075 146.411,201.194 145.319,200.756 144.828 C 200.317 144.336,200.481 144.623,201.118 145.466 M251.980 144.828 C 251.762 145.249,251.641 145.594,251.711 145.594 C 251.781 145.594,252.017 145.249,252.235 144.828 C 252.453 144.406,252.574 144.061,252.504 144.061 C 252.433 144.061,252.198 144.406,251.980 144.828 M287.696 145.722 C 287.697 146.705,287.743 147.076,287.798 146.546 C 287.853 146.016,287.853 145.211,287.796 144.758 C 287.740 144.305,287.694 144.738,287.696 145.722 M195.969 148.084 L 196.025 151.852 196.104 148.315 C 196.178 145.013,196.213 144.800,196.623 145.117 C 196.966 145.382,196.955 145.332,196.576 144.887 C 196.308 144.573,196.050 144.317,196.001 144.317 C 195.953 144.317,195.938 146.012,195.969 148.084 M221.860 145.849 C 222.522 146.692,223.243 147.526,223.463 147.701 C 223.682 147.877,223.192 147.187,222.374 146.169 C 221.557 145.150,220.835 144.317,220.772 144.317 C 220.708 144.317,221.198 145.006,221.860 145.849 M319.969 145.223 C 319.369 146.481,319.454 146.695,320.081 145.506 C 320.366 144.966,320.554 144.479,320.498 144.424 C 320.443 144.368,320.205 144.728,319.969 145.223 M87.785 145.478 C 87.185 146.736,87.270 146.950,87.897 145.761 C 88.182 145.221,88.370 144.734,88.315 144.679 C 88.259 144.624,88.021 144.983,87.785 145.478 M161.448 144.700 C 161.448 144.840,161.613 145.243,161.814 145.594 C 162.014 145.945,162.179 146.117,162.179 145.977 C 162.179 145.837,162.014 145.434,161.814 145.083 C 161.613 144.732,161.448 144.559,161.448 144.700 M284.334 145.641 C 284.280 147.145,283.935 148.067,283.062 149.042 L 282.375 149.808 283.211 149.053 C 284.183 148.174,284.631 146.911,284.482 145.466 L 284.377 144.444 284.334 145.641 M358.980 144.852 C 358.526 145.434,358.290 146.022,358.726 145.486 C 359.089 145.039,359.130 145.671,359.192 152.638 L 359.259 160.281 360.920 160.281 L 362.580 160.281 362.589 154.023 L 362.598 147.765 362.461 153.895 L 362.324 160.026 360.859 160.102 L 359.394 160.179 359.327 152.336 C 359.277 146.598,359.184 144.590,358.980 144.852 M342.213 152.427 L 342.146 160.026 340.689 160.026 C 339.887 160.026,339.325 160.118,339.439 160.232 C 339.553 160.345,340.266 160.403,341.024 160.359 L 342.401 160.281 342.469 152.797 C 342.512 148.027,342.627 145.369,342.785 145.467 C 342.926 145.554,342.968 145.448,342.882 145.224 C 342.418 144.017,342.274 145.569,342.213 152.427 M346.379 145.722 C 346.695 146.284,347.062 146.858,347.196 146.999 C 347.579 147.400,346.704 145.781,346.230 145.211 C 345.996 144.930,346.064 145.160,346.379 145.722 M59.022 145.211 C 59.022 145.351,59.186 145.754,59.387 146.105 C 59.588 146.456,59.752 146.628,59.752 146.488 C 59.752 146.347,59.588 145.945,59.387 145.594 C 59.186 145.243,59.022 145.070,59.022 145.211 M165.358 145.338 C 165.582 146.168,166.353 147.908,166.453 147.809 C 166.511 147.751,166.265 147.085,165.906 146.329 C 165.547 145.574,165.301 145.128,165.358 145.338 M174.243 145.988 C 173.815 146.927,173.897 147.128,174.360 146.274 C 174.576 145.875,174.705 145.501,174.646 145.442 C 174.588 145.384,174.407 145.630,174.243 145.988 M322.902 145.988 C 322.474 146.927,322.556 147.128,323.019 146.274 C 323.235 145.875,323.364 145.501,323.305 145.442 C 323.247 145.384,323.066 145.630,322.902 145.988 M243.390 145.977 C 243.528 146.258,243.828 146.718,244.057 146.999 L 244.473 147.510 244.222 146.999 C 244.084 146.718,243.784 146.258,243.555 145.977 L 243.139 145.466 243.390 145.977 M198.317 147.318 C 198.956 148.126,199.948 149.304,200.523 149.936 C 201.098 150.568,200.624 149.907,199.471 148.467 C 198.317 147.027,197.325 145.849,197.265 145.849 C 197.205 145.849,197.679 146.510,198.317 147.318 M227.434 147.573 C 228.252 148.592,228.973 149.425,229.037 149.425 C 229.207 149.425,226.814 146.416,226.346 146.041 C 226.127 145.865,226.616 146.555,227.434 147.573 M326.710 145.908 C 326.681 146.210,327.513 148.179,327.624 148.068 C 327.679 148.013,327.500 147.462,327.226 146.844 C 326.952 146.227,326.720 145.805,326.710 145.908 M343.569 146.743 C 343.885 147.305,344.253 147.880,344.387 148.020 C 344.769 148.421,343.895 146.803,343.420 146.232 C 343.187 145.951,343.254 146.181,343.569 146.743 M247.477 146.743 C 247.615 147.024,247.915 147.484,248.144 147.765 L 248.559 148.276 248.309 147.765 C 248.171 147.484,247.871 147.024,247.642 146.743 L 247.226 146.232 247.477 146.743 M330.290 146.488 C 330.290 146.628,330.510 147.146,330.779 147.637 C 331.048 148.129,331.268 148.416,331.268 148.276 C 331.268 148.135,331.048 147.618,330.779 147.126 C 330.510 146.635,330.290 146.347,330.290 146.488 M357.471 147.382 C 357.253 147.803,357.132 148.148,357.203 148.148 C 357.273 148.148,357.509 147.803,357.727 147.382 C 357.945 146.960,358.065 146.616,357.995 146.616 C 357.925 146.616,357.689 146.960,357.471 147.382 M318.646 148.060 C 318.432 148.573,318.315 149.052,318.387 149.124 C 318.460 149.196,318.519 149.192,318.519 149.116 C 318.519 149.039,318.692 148.560,318.905 148.052 C 319.118 147.543,319.234 147.126,319.164 147.126 C 319.094 147.126,318.861 147.546,318.646 148.060 M176.798 148.031 C 176.370 148.971,176.451 149.171,176.914 148.317 C 177.130 147.918,177.259 147.544,177.201 147.486 C 177.142 147.428,176.961 147.673,176.798 148.031 M347.765 148.148 C 347.983 148.570,348.219 148.914,348.289 148.914 C 348.359 148.914,348.238 148.570,348.020 148.148 C 347.802 147.727,347.567 147.382,347.496 147.382 C 347.426 147.382,347.547 147.727,347.765 148.148 M172.959 148.948 C 172.656 149.676,172.451 150.314,172.502 150.365 C 172.554 150.417,172.844 149.864,173.146 149.136 C 173.448 148.408,173.654 147.770,173.602 147.719 C 173.551 147.667,173.261 148.221,172.959 148.948 M244.667 148.020 C 244.805 148.301,245.105 148.761,245.334 149.042 L 245.750 149.553 245.499 149.042 C 245.361 148.761,245.061 148.301,244.832 148.020 L 244.416 147.510 244.667 148.020 M253.482 147.957 C 252.603 149.448,252.545 149.576,252.993 149.042 C 253.512 148.424,253.959 147.637,253.792 147.637 C 253.725 147.637,253.585 147.781,253.482 147.957 M353.640 148.404 C 353.422 148.825,353.301 149.170,353.371 149.170 C 353.442 149.170,353.677 148.825,353.895 148.404 C 354.113 147.982,354.234 147.637,354.164 147.637 C 354.094 147.637,353.858 147.982,353.640 148.404 M162.981 148.276 C 162.981 148.416,163.145 148.819,163.346 149.170 C 163.547 149.521,163.711 149.693,163.711 149.553 C 163.711 149.413,163.547 149.010,163.346 148.659 C 163.145 148.308,162.981 148.135,162.981 148.276 M166.635 148.404 C 166.859 149.233,167.631 150.973,167.730 150.874 C 167.788 150.816,167.542 150.150,167.183 149.394 C 166.825 148.639,166.578 148.193,166.635 148.404 M225.682 150.511 C 226.760 151.881,227.695 153.001,227.759 153.001 C 227.912 153.001,225.692 150.179,224.586 148.967 C 224.111 148.446,224.604 149.141,225.682 150.511 M248.778 148.787 C 248.984 149.068,249.169 149.329,249.189 149.368 C 249.209 149.406,249.385 149.240,249.580 148.999 C 249.838 148.681,249.845 148.616,249.606 148.760 C 249.422 148.870,249.082 148.807,248.839 148.617 C 248.439 148.304,248.434 148.317,248.778 148.787 M344.907 149.042 C 345.123 149.464,345.491 150.038,345.724 150.319 C 345.958 150.600,345.891 150.370,345.575 149.808 C 344.879 148.569,344.357 147.971,344.907 149.042 M286.850 149.414 C 286.553 150.132,285.289 151.421,284.143 152.175 C 283.873 152.352,283.997 152.333,284.419 152.133 C 285.620 151.561,287.671 149.144,287.284 148.757 C 287.221 148.694,287.026 148.990,286.850 149.414 M204.697 150.012 C 205.238 150.673,205.734 151.213,205.799 151.213 C 205.974 151.213,204.356 149.208,204.009 148.994 C 203.845 148.893,204.155 149.351,204.697 150.012 M321.121 150.076 C 320.352 151.660,320.437 151.882,321.230 150.358 C 321.584 149.677,321.831 149.076,321.777 149.023 C 321.724 148.969,321.428 149.443,321.121 150.076 M327.987 149.042 C 327.987 149.183,328.152 149.585,328.352 149.936 C 328.553 150.287,328.718 150.460,328.718 150.319 C 328.718 150.179,328.553 149.777,328.352 149.425 C 328.152 149.074,327.987 148.902,327.987 149.042 M356.194 149.681 C 355.976 150.102,355.855 150.447,355.926 150.447 C 355.996 150.447,356.232 150.102,356.450 149.681 C 356.667 149.259,356.788 148.914,356.718 148.914 C 356.648 148.914,356.412 149.259,356.194 149.681 M175.530 150.952 C 175.236 151.658,175.052 152.235,175.119 152.235 C 175.290 152.235,176.281 149.886,176.160 149.766 C 176.107 149.713,175.823 150.246,175.530 150.952 M251.877 150.590 C 251.582 151.090,251.456 151.428,251.598 151.340 C 251.875 151.169,252.704 149.681,252.522 149.681 C 252.462 149.681,252.172 150.090,251.877 150.590 M349.110 150.511 C 349.380 150.967,349.859 151.772,350.173 152.299 C 350.487 152.826,350.878 153.255,351.043 153.253 C 351.264 153.250,351.266 153.200,351.050 153.061 C 350.890 152.958,350.338 152.155,349.824 151.277 C 349.310 150.399,348.829 149.681,348.754 149.681 C 348.679 149.681,348.839 150.054,349.110 150.511 M104.511 150.586 C 104.084 151.525,104.165 151.725,104.628 150.871 C 104.844 150.473,104.973 150.099,104.915 150.040 C 104.856 149.982,104.675 150.227,104.511 150.586 M317.415 150.842 C 316.815 152.100,316.899 152.314,317.527 151.125 C 317.811 150.585,317.999 150.098,317.944 150.043 C 317.889 149.988,317.651 150.347,317.415 150.842 M352.670 150.128 C 352.611 150.233,352.241 150.894,351.846 151.596 C 351.452 152.299,351.248 152.759,351.393 152.618 C 351.762 152.260,353.079 149.936,352.913 149.936 C 352.838 149.936,352.728 150.022,352.670 150.128 M273.533 150.520 C 273.643 150.630,275.046 150.687,276.650 150.646 L 279.566 150.572 276.449 150.446 C 274.734 150.376,273.422 150.409,273.533 150.520 M246.616 151.213 C 246.834 151.635,247.069 151.980,247.140 151.980 C 247.210 151.980,247.089 151.635,246.871 151.213 C 246.653 150.792,246.417 150.447,246.347 150.447 C 246.277 150.447,246.398 150.792,246.616 151.213 M332.079 150.575 C 332.079 150.715,332.356 151.347,332.695 151.980 C 333.033 152.612,333.310 153.014,333.310 152.874 C 333.310 152.733,333.033 152.101,332.695 151.469 C 332.356 150.837,332.079 150.434,332.079 150.575 M230.869 151.916 C 231.335 152.513,231.772 153.001,231.840 153.001 C 232.039 153.001,230.972 151.584,230.477 151.191 C 230.227 150.992,230.404 151.319,230.869 151.916 M346.488 151.724 C 346.706 152.146,346.942 152.490,347.012 152.490 C 347.082 152.490,346.961 152.146,346.743 151.724 C 346.525 151.303,346.290 150.958,346.219 150.958 C 346.149 150.958,346.270 151.303,346.488 151.724 M84.976 152.119 C 84.375 153.377,84.460 153.592,85.087 152.402 C 85.372 151.862,85.560 151.375,85.505 151.320 C 85.450 151.265,85.211 151.624,84.976 152.119 M171.566 152.119 C 170.966 153.377,171.050 153.592,171.677 152.402 C 171.962 151.862,172.150 151.375,172.095 151.320 C 172.040 151.265,171.801 151.624,171.566 152.119 M202.638 152.688 C 203.301 153.551,203.981 154.341,204.149 154.445 C 204.317 154.548,203.889 153.914,203.199 153.035 C 202.508 152.156,201.828 151.366,201.687 151.279 C 201.547 151.192,201.974 151.826,202.638 152.688 M217.190 152.746 C 217.190 153.519,217.238 153.835,217.297 153.448 C 217.355 153.062,217.355 152.430,217.297 152.043 C 217.238 151.657,217.190 151.973,217.190 152.746 M164.514 151.852 C 164.514 151.992,164.678 152.395,164.879 152.746 C 165.079 153.097,165.244 153.269,165.244 153.129 C 165.244 152.989,165.079 152.586,164.879 152.235 C 164.678 151.884,164.514 151.711,164.514 151.852 M168.167 151.980 C 168.392 152.809,169.163 154.549,169.262 154.450 C 169.320 154.392,169.074 153.726,168.716 152.970 C 168.357 152.215,168.110 151.769,168.167 151.980 M320.474 152.043 C 320.539 152.149,322.533 152.235,324.904 152.235 C 327.276 152.235,329.270 152.149,329.334 152.043 C 329.399 151.938,327.406 151.852,324.904 151.852 C 322.402 151.852,320.408 151.938,320.474 152.043 M103.125 153.578 L 102.675 154.406 103.189 153.803 C 103.627 153.290,103.861 152.742,103.640 152.747 C 103.605 152.748,103.373 153.122,103.125 153.578 M250.631 156.408 L 250.575 160.199 249.042 160.112 C 248.199 160.064,247.509 160.112,247.509 160.217 C 247.510 160.569,250.581 160.435,250.718 160.077 C 250.788 159.895,250.810 158.142,250.766 156.182 L 250.687 152.618 250.631 156.408 M277.011 153.257 L 273.180 153.405 276.884 153.428 C 278.921 153.441,280.932 153.364,281.354 153.257 C 282.009 153.090,282.028 153.065,281.481 153.085 C 281.130 153.098,279.119 153.175,277.011 153.257 M228.311 153.959 C 228.589 154.345,229.235 155.121,229.748 155.683 C 230.337 156.329,230.196 156.070,229.365 154.981 C 228.095 153.315,227.284 152.529,228.311 153.959 M316.006 153.906 C 315.578 154.845,315.659 155.046,316.122 154.192 C 316.338 153.793,316.467 153.419,316.409 153.361 C 316.350 153.302,316.169 153.548,316.006 153.906 M333.635 153.943 C 334.087 155.003,334.415 155.292,334.081 154.336 C 333.923 153.882,333.689 153.447,333.562 153.368 C 333.434 153.289,333.467 153.548,333.635 153.943 M347.765 154.023 C 347.983 154.444,348.219 154.789,348.289 154.789 C 348.359 154.789,348.238 154.444,348.020 154.023 C 347.802 153.602,347.567 153.257,347.496 153.257 C 347.426 153.257,347.547 153.602,347.765 154.023 M89.697 154.162 C 89.269 155.101,89.350 155.301,89.813 154.447 C 90.029 154.049,90.158 153.675,90.100 153.616 C 90.041 153.558,89.860 153.803,89.697 154.162 M173.988 154.417 C 173.560 155.356,173.642 155.557,174.104 154.703 C 174.320 154.304,174.449 153.930,174.391 153.872 C 174.333 153.813,174.151 154.059,173.988 154.417 M353.281 154.677 C 352.986 155.177,352.861 155.515,353.003 155.427 C 353.279 155.256,354.109 153.768,353.927 153.768 C 353.867 153.768,353.577 154.177,353.281 154.677 M165.517 154.077 C 165.517 154.352,166.293 156.066,166.418 156.066 C 166.488 156.066,166.368 155.641,166.151 155.122 C 165.768 154.205,165.517 153.792,165.517 154.077 M319.190 154.736 C 319.121 154.847,319.488 154.898,320.005 154.849 C 321.585 154.699,321.771 154.595,320.513 154.563 C 319.854 154.547,319.259 154.625,319.190 154.736 M323.244 154.708 C 326.985 154.892,330.722 154.901,330.613 154.725 C 330.547 154.620,328.518 154.556,326.102 154.583 C 323.687 154.610,322.401 154.666,323.244 154.708 M170.272 155.189 C 170.188 155.408,170.004 155.517,169.864 155.431 C 169.713 155.337,169.677 155.449,169.776 155.706 C 169.944 156.145,170.626 155.576,170.626 154.996 C 170.626 154.657,170.436 154.761,170.272 155.189 M348.738 155.683 C 348.954 156.105,349.322 156.679,349.556 156.960 C 349.789 157.241,349.722 157.011,349.406 156.450 C 348.710 155.210,348.189 154.612,348.738 155.683 M318.560 155.950 C 318.132 156.889,318.214 157.089,318.676 156.235 C 318.893 155.837,319.022 155.463,318.963 155.404 C 318.905 155.346,318.723 155.591,318.560 155.950 M331.056 155.939 C 331.056 156.079,331.276 156.596,331.545 157.088 C 331.815 157.580,332.035 157.867,332.035 157.727 C 332.035 157.586,331.815 157.069,331.545 156.577 C 331.276 156.086,331.056 155.798,331.056 155.939 M334.634 155.939 C 334.634 156.079,334.911 156.711,335.249 157.344 C 335.588 157.976,335.865 158.378,335.865 158.238 C 335.865 158.097,335.588 157.465,335.249 156.833 C 334.911 156.201,334.634 155.798,334.634 155.939 M206.130 157.088 C 206.575 157.650,206.997 158.110,207.067 158.110 C 207.137 158.110,206.831 157.650,206.386 157.088 C 205.941 156.526,205.519 156.066,205.449 156.066 C 205.379 156.066,205.685 156.526,206.130 157.088 M314.605 156.972 C 314.005 158.231,314.090 158.445,314.717 157.256 C 315.002 156.716,315.190 156.228,315.134 156.173 C 315.079 156.118,314.841 156.478,314.605 156.972 M217.160 157.995 C 217.131 159.113,217.230 159.912,217.420 160.102 C 217.753 160.435,220.329 160.530,220.523 160.217 C 220.589 160.112,219.934 160.026,219.069 160.026 L 217.497 160.026 217.351 158.110 L 217.206 156.194 217.160 157.995 M351.887 156.943 C 351.663 157.284,351.161 157.612,350.772 157.671 C 350.101 157.772,350.107 157.780,350.887 157.816 C 351.563 157.848,351.782 157.717,352.107 157.088 C 352.584 156.166,352.453 156.079,351.887 156.943 M172.711 157.227 C 172.283 158.166,172.364 158.366,172.827 157.513 C 173.043 157.114,173.172 156.740,173.114 156.681 C 173.055 156.623,172.874 156.868,172.711 157.227 M231.441 157.918 C 233.208 160.221,233.459 160.409,234.771 160.409 C 235.439 160.409,236.039 160.322,236.104 160.217 C 236.170 160.112,235.612 160.064,234.864 160.112 L 233.505 160.198 232.182 158.515 C 231.455 157.590,230.803 156.833,230.734 156.833 C 230.665 156.833,230.983 157.321,231.441 157.918 M82.545 157.738 C 82.117 158.677,82.198 158.877,82.661 158.023 C 82.877 157.625,83.006 157.251,82.948 157.192 C 82.889 157.134,82.708 157.379,82.545 157.738 M167.068 157.727 C 167.068 157.867,167.232 158.269,167.433 158.621 C 167.634 158.972,167.798 159.144,167.798 159.004 C 167.798 158.863,167.634 158.461,167.433 158.110 C 167.232 157.759,167.068 157.586,167.068 157.727 M317.148 159.121 L 316.735 160.153 315.172 160.153 L 313.610 160.153 313.767 159.451 L 313.925 158.748 313.557 159.387 C 313.046 160.275,313.342 160.447,315.223 160.358 C 316.752 160.286,318.350 158.878,317.671 158.199 C 317.611 158.138,317.375 158.553,317.148 159.121 M332.328 158.697 C 332.241 159.785,333.116 160.409,334.730 160.409 C 336.465 160.409,336.858 160.184,336.400 159.453 C 336.156 159.064,336.140 159.081,336.276 159.579 C 336.573 160.665,333.307 160.428,332.757 159.323 C 332.530 158.867,332.337 158.585,332.328 158.697 M171.685 159.535 C 171.399 160.161,171.296 160.192,169.751 160.111 C 168.853 160.064,168.172 160.112,168.238 160.217 C 168.579 160.766,171.381 160.408,171.804 159.762 C 172.037 159.407,172.173 159.061,172.107 158.995 C 172.040 158.928,171.850 159.172,171.685 159.535 M192.760 160.217 C 192.825 160.322,193.497 160.409,194.253 160.409 C 195.009 160.409,195.681 160.322,195.746 160.217 C 195.811 160.112,195.139 160.026,194.253 160.026 C 193.367 160.026,192.695 160.112,192.760 160.217 M75.926 161.109 C 76.874 161.158,78.426 161.158,79.374 161.109 C 80.322 161.060,79.547 161.020,77.650 161.020 C 75.754 161.020,74.978 161.060,75.926 161.109 M88.570 161.100 C 88.886 161.161,89.403 161.161,89.719 161.100 C 90.035 161.039,89.777 160.989,89.144 160.989 C 88.512 160.989,88.254 161.039,88.570 161.100 " stroke="none" fill="#ccd5dd" fill-rule="evenodd"></path></g></svg>